<svg xmlns="http://www.w3.org/2000/svg" viewBox="0 0 512 512" role="img" aria-label="Vanguard Bay">
<defs>
  <radialGradient id="bg"><stop stop-color="#ee198c"/><stop offset=".58" stop-color="#711a89"/><stop offset="1" stop-color="#1c0c3a"/></radialGradient>
  <linearGradient id="v" x1="0" y1="0" x2="1" y2="1"><stop stop-color="#c5ffff"/><stop offset=".5" stop-color="#16d5ff"/><stop offset="1" stop-color="#234bd7"/></linearGradient>
  <linearGradient id="b" x1="0" y1="0" x2="1" y2="1"><stop stop-color="#fff"/><stop offset=".25" stop-color="#ff65d1"/><stop offset=".72" stop-color="#ff0b8d"/><stop offset="1" stop-color="#9e29e7"/></linearGradient>
  <filter id="g"><feGaussianBlur stdDeviation="5" result="b"/><feMerge><feMergeNode in="b"/><feMergeNode in="SourceGraphic"/></feMerge></filter>
</defs>
<rect width="512" height="512" fill="url(#bg)"/>
<circle cx="256" cy="191" r="91" fill="#ffc858" opacity=".94"/>
<g fill="#350c48">
  <rect x="82" y="337" width="48" height="75"/><rect x="139" y="312" width="38" height="100"/><rect x="185" y="348" width="37" height="64"/>
  <rect x="297" y="342" width="40" height="70"/><rect x="346" y="309" width="44" height="103"/><rect x="399" y="345" width="34" height="67"/>
</g>
<path d="M132 159 213 358 294 159h-51l-30 88-30-88Z" fill="url(#v)" stroke="#b8ffff" stroke-width="9" stroke-linejoin="round" filter="url(#g)"/>
<text x="238" y="330" font-family="Arial Black,Arial,sans-serif" font-size="184" font-style="italic" font-weight="900" fill="url(#b)" stroke="#fff" stroke-width="3" paint-order="stroke" filter="url(#g)">B</text>
<path d="M0 412c93-18 173-9 256 7 90 17 170 13 256-8v101H0Z" fill="#16092e"/>
</svg>